<?xml version="1.0" encoding="utf-8"?>
<!-- Generator: Adobe Illustrator 16.0.0, SVG Export Plug-In . SVG Version: 6.00 Build 0)  -->
<!DOCTYPE svg PUBLIC "-//W3C//DTD SVG 1.1//EN" "http://www.w3.org/Graphics/SVG/1.1/DTD/svg11.dtd">
<svg version="1.1" id="Layer_1" xmlns="http://www.w3.org/2000/svg" xmlns:xlink="http://www.w3.org/1999/xlink" x="0px" y="0px"
	 width="780px" height="460px" viewBox="0 0 780 460" enable-background="new 0 0 780 460" xml:space="preserve">
<path fill="#231F20" d="M675.669,30.232v368.293H105.386V30.232H675.669 M675.669,7.34H105.386
	c-12.643,0-22.892,10.249-22.892,22.892v368.293c0,12.644,10.25,22.893,22.892,22.893h570.283c12.644,0,22.893-10.249,22.893-22.893
	V30.232C698.562,17.589,688.312,7.34,675.669,7.34L675.669,7.34z"/>
<path fill="#231F20" d="M9.219,424.226c0,0,0.115,16.526,0,18.18c-0.115,1.652,43.63,6.935,69.798,7.741
	c26.168,0.807,32.602,2.308,127.226,2.555c94.625,0.247,363.832,0.026,363.832,0.026s73.723-0.669,90.334-1.01
	c106.83-2.247,113.676-9.314,113.676-9.314v-18.178H441.025c0,0,0.047,4.625-0.019,5.422c-0.065,0.796-1.16,1.534-2.507,1.533
	s-91.428-0.085-93.925-0.168c-2.497-0.083-3.585-0.143-3.535-1.684c0.051-1.542,0.029-5.104,0.029-5.104H9.219z"/>
</svg>
