<?xml version="1.0" encoding="utf-8"?>
<!-- Generator: Adobe Illustrator 16.0.0, SVG Export Plug-In . SVG Version: 6.00 Build 0)  -->
<!DOCTYPE svg PUBLIC "-//W3C//DTD SVG 1.1//EN" "http://www.w3.org/Graphics/SVG/1.1/DTD/svg11.dtd">
<svg version="1.1" id="Layer_1" xmlns="http://www.w3.org/2000/svg" xmlns:xlink="http://www.w3.org/1999/xlink" x="0px" y="0px"
	 width="300px" height="300px" viewBox="0 0 300 300" enable-background="new 0 0 300 300" xml:space="preserve">
<g>
	<g>
		<path d="M30.987,29.461c0.978,21.015,0.528,42.049,0.513,63.077c-0.002,3.225,4.998,3.224,5,0
			c0.015-21.028,0.465-42.062-0.513-63.077C35.838,26.251,30.837,26.237,30.987,29.461L30.987,29.461z"/>
	</g>
</g>
<g>
	<g>
		<path d="M26.591,31.742c15.352,15.181,23.007,35.386,32.43,54.366c1.146,2.309,4.627,1.106,4.659-1.262
			c0.345-26.149,14.816-49.216,24.787-72.584c-1.523-0.199-3.046-0.398-4.569-0.597c2.63,15.02,0.944,30.336,0.497,45.463
			c-0.48,16.223-0.073,32.514-0.073,48.744c0,3.224,5,3.224,5,0c0-16.238-0.296-32.509,0.073-48.744
			c0.355-15.647,2.046-31.252-0.675-46.792c-0.355-2.031-3.735-2.554-4.569-0.597C73.815,33.958,59.038,57.74,58.68,84.846
			c1.553-0.42,3.106-0.841,4.659-1.262c-9.627-19.393-17.529-39.87-33.212-55.378C27.833,25.938,24.296,29.472,26.591,31.742
			L26.591,31.742z"/>
	</g>
</g>
<g>
	<g>
		<path d="M100.603,94.077c0.979-19.308,1.816-38.567,7.09-57.284c0.876-3.11-3.948-4.428-4.821-1.329
			c-5.394,19.139-6.268,38.869-7.269,58.613C95.439,97.301,100.44,97.285,100.603,94.077L100.603,94.077z"/>
	</g>
</g>
<g>
	<g>
		<path d="M103.808,33.564c1.063,17.447,3.02,34.831,3.59,52.308c0.105,3.216,5.105,3.226,5,0
			c-0.57-17.477-2.526-34.861-3.59-52.308C108.612,30.361,103.611,30.342,103.808,33.564L103.808,33.564z"/>
	</g>
</g>
<g>
	<g>
		<path d="M94,79.654c4.773,0.49,9.565,0.512,14.359,0.513c3.225,0,3.224-5,0-5c-4.794-0.001-9.585-0.023-14.359-0.513
			C90.793,74.325,90.825,79.328,94,79.654L94,79.654z"/>
	</g>
</g>
<g>
	<g>
		<path d="M107.333,28.885c9.744,0,19.487,0,29.23,0c3.224,0,3.224-5,0-5c-9.744,0-19.487,0-29.23,0
			C104.109,23.885,104.109,28.885,107.333,28.885L107.333,28.885z"/>
	</g>
</g>
<g>
	<g>
		<path d="M123.808,24.846c0,33.504,0,67.008,0,100.513c0,3.224,5,3.224,5,0c0-33.504,0-67.008,0-100.513
			C128.808,21.622,123.808,21.622,123.808,24.846L123.808,24.846z"/>
	</g>
</g>
<g>
	<g>
		<path d="M144.256,43.244c12.953,0.132,26.394,3.008,38.698-2.393c2.946-1.293,0.399-5.6-2.523-4.317
			c-11.222,4.925-24.372,1.831-36.174,1.71C141.031,38.21,141.034,43.21,144.256,43.244L144.256,43.244z"/>
	</g>
</g>
<g>
	<g>
		<path d="M159.705,40.231c1.493,25.962,0.537,51.964,0.513,77.949c-0.003,3.225,4.997,3.224,5,0
			c0.024-25.984,0.98-51.986-0.513-77.949C164.521,37.026,159.52,37.008,159.705,40.231L159.705,40.231z"/>
	</g>
</g>
<g>
	<g>
		<path d="M29.449,175.615c0.507,27.519,0.513,55.042,0.513,82.564c0,3.225,5,3.225,5,0c0-27.522-0.006-55.046-0.513-82.564
			C34.39,172.395,29.389,172.389,29.449,175.615L29.449,175.615z"/>
	</g>
</g>
<g>
	<g>
		<path d="M16.051,179.141c32.35,0.955,64.633-1.519,96.923-3.076c-0.42-1.553-0.841-3.105-1.262-4.658
			c-29.864,14.701-51.483,43.432-84.018,53.08c-2.83,0.84-2.071,4.66,0.665,4.911c23.46,2.156,47.161,9.627,63.874,26.96
			c2.241,2.325,5.773-1.215,3.535-3.535c-17.662-18.319-42.63-26.146-67.409-28.425c0.222,1.637,0.443,3.273,0.665,4.911
			c33.065-9.807,54.907-38.667,85.212-53.586c2.23-1.098,1.169-4.775-1.262-4.658c-32.29,1.558-64.573,4.031-96.923,3.076
			C12.825,174.045,12.834,179.046,16.051,179.141L16.051,179.141z"/>
	</g>
</g>
<g>
	<g>
		<path d="M96.115,217.667c0.652,9.478-1.407,20.047,1.869,29.159c3.422,9.521,14.367,10.991,23.206,10.167
			c9.118-0.851,21.376-3.311,20.431-14.759c-0.459-5.565-2.191-11.054-3.695-16.402c-1.903-6.771-2.147-13.745-3.565-20.625
			c-0.651-3.156-5.47-1.817-4.821,1.33c1.151,5.583,1.126,11.408,2.541,16.911c1.004,3.907,2.188,7.763,3.165,11.678
			c0.714,2.865,2.631,8.156,1.213,11.022c-2.383,4.818-10.666,5.378-15.267,5.845c-8.453,0.857-17.255-0.336-19.294-9.702
			c-1.724-7.917-0.226-16.573-0.78-24.624C100.896,214.469,95.894,214.447,96.115,217.667L96.115,217.667z"/>
	</g>
</g>
<g>
	<g>
		<path d="M147.91,173.051c1.489,25.753-4.093,51.244,1.904,76.714c0.648,2.75,1.225,5.346,3.554,7.123
			c2.288,1.746,6.809,1.086,9.426,1.167c13.146,0.405,27.151,0.157,39.563-4.644c2.974-1.151,1.682-5.987-1.33-4.822
			c-11.202,4.334-23.227,4.505-35.083,4.526c-2.652,0.004-7.594,0.738-10.053-0.545c-1.555-0.812-2.304-8.46-2.605-9.903
			c-4.76-22.791,0.955-46.59-0.376-69.616C152.725,169.846,147.724,169.828,147.91,173.051L147.91,173.051z"/>
	</g>
</g>
<g>
	<g>
		<path d="M188.872,179.141c5.755-0.077,11.46-1.07,17.209-1.327c2.752-0.122,5.884-0.203,8.466,0.911
			c3.201,1.38,1.641,5.188,0.841,7.646c-5.142,15.818-21.828,24.902-32.386,36.708c-1.814,2.029,0.558,5.571,3.029,3.926
			c18.63-12.402,44.426-5.938,65.404-7.35c3.199-0.215,3.221-5.217,0-5c-21.976,1.479-48.367-4.989-67.928,8.033
			c1.01,1.309,2.02,2.617,3.029,3.926c6.664-7.452,14.726-13.476,21.702-20.619c5.838-5.978,12.862-14.813,13.223-23.591
			c0.617-15.01-24.228-8.375-32.59-8.263C185.65,174.184,185.646,179.184,188.872,179.141L188.872,179.141z"/>
	</g>
</g>
</svg>
